<?xml version="1.0" encoding="UTF-8" standalone="no"?>
<svg
   xml:space="preserve"
   width="228.19437"
   height="234.93753"
   viewBox="0 0 228.19437 234.93753"
   version="1.1"
   id="svg1"
   sodipodi:docname="logo.svg"
   inkscape:version="1.3.2 (091e20e, 2023-11-25, custom)"
   xmlns:inkscape="http://www.inkscape.org/namespaces/inkscape"
   xmlns:sodipodi="http://sodipodi.sourceforge.net/DTD/sodipodi-0.dtd"
   xmlns="http://www.w3.org/2000/svg"
   xmlns:svg="http://www.w3.org/2000/svg"><defs
   id="defs1" /><sodipodi:namedview
   id="namedview1"
   pagecolor="#ffffff"
   bordercolor="#000000"
   borderopacity="0.25"
   inkscape:showpageshadow="2"
   inkscape:pageopacity="0.0"
   inkscape:pagecheckerboard="0"
   inkscape:deskcolor="#d1d1d1"
   inkscape:zoom="3.9890351"
   inkscape:cx="107.41946"
   inkscape:cy="117.94832"
   inkscape:window-width="5120"
   inkscape:window-height="2054"
   inkscape:window-x="-11"
   inkscape:window-y="-11"
   inkscape:window-maximized="1"
   inkscape:current-layer="svg1" />
<path
   style="fill:#ffffff;fill-opacity:1;stroke:#ffffff;stroke-width:2.51152;stroke-linecap:round;stroke-linejoin:round;stroke-miterlimit:4;stroke-dasharray:none;stroke-opacity:1"
   d="m 144.90423,3.9547384 c -4.60477,-2.40193 -14.76615,-5.14184 -11.92399,1.26851 14.53899,23.2017796 6.20235,28.2323496 7.86476,24.9896296 -13.31935,3.80553 -36.99498,33.65971 -61.205583,33.4774 27.590083,24.21727 45.967613,9.65653 45.967613,9.65653 10.03708,22.82856 -1.14699,29.989622 -17.1408,31.572252 -15.993813,1.58262 -37.146203,-2.54003 -46.490803,-2.27429 -9.3446,0.26574 -21.61284,1.29507 -31.33664,6.36588 0,0 -16.85639,-2.08341 -27.4270495,-12.835282 -8.33454,-8.4774 13.1739095,33.255392 13.1739095,33.255392 0.40706,25.71309 9.15185,42.85517 9.15185,42.85517 3.26132,6.49482 -0.58176,17.31783 -2.28332,22.83317 l 0.2537,38.56268 19.53505,-0.5074 -0.76111,-23.08687 c 0,0 0.3252,-14.77366 7.4842,-25.11648 -0.85121,14.16169 4.12527,25.40135 1.64907,43.38302 0,0 19.37768,-0.0755 19.28134,-0.50741 -4.57982,-20.53061 1.45407,-44.48834 1.45407,-44.48834 27.902493,2.76363 40.026193,-2.70021 40.026193,-2.70021 3.67868,24.60909 2.91595,16.16707 4.43978,52.26259 0.0322,0.76202 18.45681,0.0634 18.45681,0.0634 -1.83084,-38.46519 -1.07823,-50.39153 -1.07823,-50.39153 0,0 7.07957,22.00956 11.28973,43.22446 0.20183,1.01702 20.22972,0.62063 19.78875,-0.76111 -15.52109,-48.63347 -12.00648,-68.44835 -12.00648,-68.44835 4.02756,-4.76291 19.04812,-26.61291 19.61753,-49.06496 12.41614,3.18943 40.57755,8.14059 41.38512,-7.26222 6.9948,-2.891752 13.74224,-7.382472 12.78023,-14.887352 -1.24452,-9.70883 -13.57295,-14.65777 -21.83716,-27.7483 17.33209,2.21943 24.36401,0.37418 19.26254,-1.1096 -7.21073,-2.09728 -21.00177,-9.77508 -21.00177,-9.77508 0.0753,-5.65666 -7.70818,-11.09373 -7.70818,-11.09373 3.34272,-13.11029 -11.90171,-24.59776 -19.68763,-29.6064096 -4.60478,-2.40193 -14.76615,-5.14185004 -11.924,1.2685 14.539,23.2017896 8.86622,19.6064896 10.59125,20.8778796 -7.40182,-2.02295 -7.52685,-1.62342 -7.52685,-1.62342 -3.65018,-9.81069 -14.32798,-17.6194796 -22.1139,-22.6281396 z"
   id="path1" />
</svg>
